<svg width="18" height="18" viewBox="0 0 18 18" fill="none" xmlns="http://www.w3.org/2000/svg">
<path d="M14.9142 5.56931C14.957 5.56106 15.0087 5.55581 15.0485 5.54981C15.1008 5.54876 15.1525 5.56143 15.1985 5.58656C15.2062 5.59084 15.215 5.59279 15.2238 5.59217C15.2326 5.59155 15.2411 5.5884 15.2481 5.58308C15.2552 5.57777 15.2606 5.57052 15.2636 5.56222C15.2666 5.55392 15.2672 5.54492 15.2652 5.53631C15.2502 5.48906 15.2285 5.43281 15.2165 5.39381C15.211 5.37675 15.2012 5.36138 15.188 5.34917C15.1749 5.33696 15.1589 5.32832 15.1415 5.32406C15.1209 5.31957 15.1029 5.3071 15.0915 5.28938C15.0801 5.27166 15.0763 5.25015 15.0807 5.22956C15.0874 5.20038 15.0999 5.17285 15.1175 5.14856C15.1699 5.08157 15.2067 5.00369 15.2251 4.92063C15.2436 4.83758 15.2432 4.75145 15.224 4.66856C15.1975 4.58827 15.1446 4.51928 15.074 4.47281C15.0668 4.46855 15.0607 4.4628 15.056 4.45595C15.0513 4.4491 15.0481 4.44132 15.0467 4.43313C15.0453 4.42494 15.0456 4.41654 15.0477 4.4085C15.0499 4.40047 15.0537 4.39298 15.059 4.38656C15.0796 4.35818 15.0911 4.32416 15.092 4.28906C15.0894 4.21356 15.0742 4.13903 15.047 4.06856C15.0399 4.02686 15.0399 3.98426 15.047 3.94256C15.059 3.88406 14.9825 3.84806 14.9825 3.84806C14.9825 3.84806 15.0402 3.78656 14.9825 3.66356C14.9247 3.54056 14.5325 3.50231 14.5325 3.50231C14.5325 3.50231 14.5902 3.25106 14.2737 3.12731C14.018 3.02981 13.814 3.42731 13.7442 3.59006C13.735 3.60944 13.7193 3.62503 13.6999 3.63419C13.6805 3.64335 13.6585 3.64551 13.6377 3.64031C13.627 3.6391 13.6168 3.63502 13.6083 3.62852C13.5997 3.62201 13.593 3.61332 13.5889 3.60335C13.5849 3.59338 13.5836 3.58249 13.5851 3.57184C13.5867 3.56119 13.5912 3.55116 13.598 3.54281L13.808 3.31781C13.817 3.30779 13.8236 3.29573 13.827 3.28265C13.8304 3.26957 13.8306 3.25585 13.8276 3.24267C13.8246 3.2295 13.8184 3.21724 13.8096 3.20695C13.8009 3.19666 13.7897 3.18864 13.7772 3.18356L13.7532 3.17231L13.7652 3.16706C13.8096 3.15173 13.846 3.11942 13.8665 3.07723C13.8871 3.03504 13.89 2.98642 13.8747 2.94206V2.94131C13.866 2.91651 13.8519 2.89392 13.8335 2.87513C13.8151 2.85634 13.7928 2.84181 13.7682 2.83256L13.7247 2.81531C13.6801 2.79714 13.6434 2.76363 13.6212 2.72081L13.5882 2.65406C13.5688 2.61847 13.5395 2.58925 13.5038 2.56995C13.4681 2.55066 13.4276 2.5421 13.3872 2.54531C13.1347 2.56759 12.8977 2.6768 12.7167 2.85431C12.3335 3.20606 12.065 4.74656 12.0192 5.05031C12.0136 5.08571 11.998 5.11876 11.9742 5.14556C11.9342 5.19356 11.8672 5.26981 11.7732 5.37431C11.424 5.74249 10.9812 6.00875 10.4922 6.14456C9.91983 6.21285 9.34365 6.24442 8.76722 6.23906C8.16704 6.24375 7.57087 6.14087 7.00697 5.93531C6.60347 5.69981 6.25922 4.47581 5.79948 4.02131C5.46976 3.7196 5.06654 3.50985 4.63023 3.41306C4.54608 3.39603 4.45979 3.39223 4.37448 3.40181C4.364 3.40327 4.35332 3.40178 4.34364 3.39751C4.33396 3.39324 4.32566 3.38637 4.31966 3.37765C4.31367 3.36893 4.31022 3.35871 4.3097 3.34815C4.30918 3.33758 4.31162 3.32708 4.31673 3.31781C4.33765 3.28479 4.35595 3.25019 4.37148 3.21431C4.37748 3.17831 4.31973 3.08906 4.31973 3.08906L4.21623 3.00506L4.17348 2.94656L4.05723 2.91056L4.03623 2.89631C4.02955 2.89284 4.02221 2.8908 4.0147 2.89033C4.00718 2.88986 3.99965 2.89097 3.99258 2.89358C3.98552 2.8962 3.97908 2.90026 3.97368 2.90551C3.96828 2.91076 3.96404 2.91708 3.96123 2.92406L3.92748 3.02231C3.92748 3.02231 3.85248 2.87231 3.80223 2.89631C3.72048 2.93831 3.80223 3.15881 3.80223 3.15881C3.80223 3.15881 3.65223 2.90756 3.56823 2.94656C3.41823 3.01406 3.59823 3.33731 3.59823 3.33731C3.59823 3.33731 3.48573 3.13931 3.40698 3.17006C3.36723 3.18356 3.40698 3.43256 3.40698 3.43256C3.40698 3.43256 3.32523 3.40406 3.29448 3.41831C3.26373 3.43256 3.32823 3.62756 3.32823 3.62756H3.23223C3.21974 3.62724 3.20747 3.63083 3.19711 3.63782C3.18676 3.64481 3.17885 3.65486 3.17448 3.66656L3.16248 3.70031L3.10773 3.74456C3.08606 3.76242 3.06956 3.78574 3.05994 3.81211C3.05031 3.83848 3.04791 3.86695 3.05298 3.89456L3.06498 3.95906L3.04923 4.02581L3.05598 4.10081C2.96921 4.16468 2.8904 4.23871 2.82123 4.32131C2.75918 4.42459 2.72844 4.54365 2.73273 4.66406C2.7685 4.62262 2.81493 4.59175 2.86698 4.57481L3.01023 4.49981C3.09832 4.4549 3.19785 4.43739 3.29598 4.44956H3.47598C3.43804 4.53572 3.41278 4.62691 3.40098 4.72031C3.40099 4.78287 3.41463 4.84467 3.44096 4.90142C3.46729 4.95817 3.50566 5.0085 3.55342 5.0489C3.60118 5.08931 3.65717 5.11882 3.7175 5.13538C3.77782 5.15195 3.84103 5.15516 3.90273 5.14481C3.9628 5.13662 4.02027 5.11506 4.0709 5.0817C4.12152 5.04833 4.16401 5.00403 4.19523 4.95206C3.94541 5.47117 3.78274 6.02786 3.71373 6.59981C3.61627 7.4872 3.86356 8.37811 4.40448 9.0883C5.27598 10.1998 6.58547 10.4781 6.89972 10.7038C7.21397 10.9296 7.63022 11.396 7.92272 11.552C8.18147 11.6915 8.55647 12.0988 8.96747 12.4145C9.11624 12.5388 9.27762 12.6472 9.44897 12.7378C9.33055 13.268 9.16437 13.7863 8.95247 14.2865C8.93343 14.3259 8.90261 14.3582 8.8643 14.3792C8.82599 14.4002 8.78209 14.4087 8.73872 14.4035C8.53036 14.3835 8.32085 14.378 8.11172 14.387C7.97209 14.412 7.83606 14.4541 7.70672 14.5123C7.67597 14.5235 7.68872 14.5625 7.71872 14.5625C7.86197 14.5625 8.08097 14.5625 8.16347 14.5708C8.16347 14.5708 8.32772 14.621 8.33072 14.621C8.30672 14.621 8.10572 14.627 8.07197 14.63C7.76396 14.6496 7.45828 14.6963 7.15847 14.7695C7.1526 14.7715 7.14757 14.7754 7.14424 14.7806C7.1409 14.7859 7.13947 14.7921 7.14017 14.7982C7.14088 14.8044 7.14368 14.8101 7.1481 14.8144C7.15252 14.8188 7.15831 14.8215 7.16447 14.822C7.31447 14.8363 7.60322 14.864 7.73072 14.8835C7.92272 14.9143 8.00222 15.0065 8.20322 15.0425C8.13041 15.0914 8.05275 15.1326 7.97147 15.1655C7.87397 15.188 7.73747 15.4168 7.65497 15.5675C7.64297 15.5893 7.66997 15.6148 7.69772 15.6035C7.86797 15.5143 8.24597 15.3133 8.29172 15.2968C8.59695 15.1654 8.91668 15.0708 9.24422 15.0148C9.26597 15.0095 9.30272 15.0005 9.36347 14.906C9.52772 14.9285 9.71072 14.9593 9.85997 14.987C9.78741 15.0361 9.7097 15.0771 9.62822 15.1093C9.53072 15.1318 9.40322 15.3523 9.31472 15.506C9.31229 15.5118 9.31176 15.5182 9.31322 15.5243C9.31467 15.5303 9.31804 15.5358 9.32282 15.5398C9.3276 15.5438 9.33354 15.5462 9.33978 15.5466C9.34601 15.547 9.35221 15.5454 9.35747 15.542C9.50747 15.4558 9.78647 15.2908 9.90872 15.227C10.229 15.1065 10.5604 15.0176 10.898 14.9615C10.9227 14.9563 10.9685 14.942 11.048 14.7995C11.0762 14.7503 11.122 14.7136 11.1762 14.6968C11.279 14.6568 11.3863 14.6296 11.4957 14.6158C11.5632 14.6908 11.7822 14.6908 11.8797 14.6855H11.9435C11.9471 14.6857 11.9506 14.6847 11.9537 14.6829C11.9568 14.681 11.9593 14.6783 11.9609 14.675C11.9625 14.6718 11.9631 14.6681 11.9627 14.6645C11.9622 14.661 11.9608 14.6576 11.9585 14.6548L11.9165 14.6105C11.9165 14.6045 11.8092 14.4958 11.7305 14.4208C11.5764 14.3605 11.411 14.3349 11.246 14.3458C11.3165 14.156 11.4012 13.913 11.4957 13.5868C11.5842 13.3078 11.6637 13.0258 11.7275 12.7805C12.0798 12.6092 12.3548 12.3114 12.4977 11.9465C12.744 11.7718 12.952 11.5486 13.1091 11.2907C13.2662 11.0328 13.369 10.7456 13.4112 10.4466C13.354 9.83061 13.2075 9.22628 12.9762 8.65255C13.3075 8.60756 13.6287 8.50609 13.9257 8.35255C14.2879 8.0163 14.5135 7.55839 14.5595 7.06631C14.5884 6.80887 14.6007 6.54983 14.5962 6.29081C14.5991 6.26297 14.609 6.23631 14.625 6.21335C14.641 6.19039 14.6626 6.17188 14.6877 6.15956C14.7266 6.14281 14.7634 6.1214 14.7972 6.09581C14.922 6.0513 15.0509 6.01914 15.182 5.99981C15.1904 5.99915 15.1985 5.99637 15.2056 5.99173C15.2127 5.98708 15.2185 5.98072 15.2225 5.97324C15.2264 5.96576 15.2284 5.9574 15.2283 5.94893C15.2282 5.94046 15.2259 5.93216 15.2217 5.92481C15.1787 5.86547 15.1262 5.81354 15.0665 5.77106L14.8895 5.65406C14.8822 5.64809 14.8768 5.64012 14.8741 5.63113C14.8713 5.62214 14.8712 5.61254 14.8739 5.60351C14.8765 5.59448 14.8817 5.58643 14.8889 5.58035C14.8961 5.57427 14.9049 5.57043 14.9142 5.56931ZM10.6497 14.2805C10.6197 14.348 10.4997 14.348 10.4187 14.342C10.2043 14.318 9.98829 14.3125 9.77297 14.3255C9.68911 14.3329 9.60573 14.3449 9.52322 14.3615C9.58997 14.1778 9.96197 12.9695 10.0347 12.6958C10.2342 12.6004 10.4239 12.4856 10.601 12.353C10.8147 12.155 10.8327 12.0568 10.8327 12.0568C10.8748 12.2891 10.994 12.5005 11.171 12.6568C11.0465 13.2126 10.872 13.7561 10.6497 14.2805Z" fill="#2E7D32"/>
</svg>
