<svg width="45" height="45" viewBox="0 0 45 45" fill="none" xmlns="http://www.w3.org/2000/svg">
<path d="M22.5 42.656C15 42.656 8.90625 37.2747 8.90625 30.656V23.7185C8.90625 22.9498 9.54375 22.3123 10.3125 22.3123C11.0812 22.3123 11.7188 22.9498 11.7188 23.7185C11.7188 28.631 16.35 32.3435 22.5 32.3435C28.65 32.3435 33.2812 28.631 33.2812 23.7185C33.2812 22.9498 33.9188 22.3123 34.6875 22.3123C35.4562 22.3123 36.0938 22.9498 36.0938 23.7185V30.656C36.0938 37.2747 30 42.656 22.5 42.656ZM11.7188 30.8623C11.85 35.831 16.6312 39.8435 22.5 39.8435C28.3687 39.8435 33.15 35.831 33.2812 30.8623C30.8438 33.506 26.9813 35.156 22.5 35.156C18.0188 35.156 14.175 33.506 11.7188 30.8623Z" fill="black"/>
<path d="M22.5 25.7812C17.325 25.7812 12.675 23.4562 10.4062 19.7062C9.43123 18.1125 8.90625 16.2563 8.90625 14.3438C8.90625 11.1188 10.35 8.08125 12.9563 5.79375C15.5063 3.5625 18.9 2.34375 22.5 2.34375C26.1 2.34375 29.475 3.5625 32.0437 5.775C34.65 8.08125 36.0938 11.1188 36.0938 14.3438C36.0938 16.2563 35.5688 18.0937 34.5938 19.7062C32.325 23.4562 27.675 25.7812 22.5 25.7812ZM22.5 5.15625C19.575 5.15625 16.8375 6.13125 14.7938 7.93125C12.8063 9.65625 11.7188 11.9438 11.7188 14.3438C11.7188 15.75 12.0937 17.0625 12.8062 18.2437C14.5875 21.1687 18.3 22.9688 22.5 22.9688C26.7 22.9688 30.4125 21.15 32.1938 18.2437C32.925 17.0625 33.2812 15.75 33.2812 14.3438C33.2812 11.9438 32.1938 9.65625 30.1875 7.89375C28.1438 6.13125 25.425 5.15625 22.5 5.15625Z" fill="black"/>
<path d="M22.5 35.1562C14.7562 35.1562 8.90625 30.2438 8.90625 23.7188V14.3438C8.90625 7.725 15 2.34375 22.5 2.34375C26.1 2.34375 29.475 3.5625 32.0437 5.775C34.65 8.08125 36.0938 11.1188 36.0938 14.3438V23.7188C36.0938 30.2438 30.2437 35.1562 22.5 35.1562ZM22.5 5.15625C16.5562 5.15625 11.7188 9.28125 11.7188 14.3438V23.7188C11.7188 28.6313 16.35 32.3438 22.5 32.3438C28.65 32.3438 33.2812 28.6313 33.2812 23.7188V14.3438C33.2812 11.9438 32.1938 9.65625 30.1875 7.89375C28.1438 6.13125 25.425 5.15625 22.5 5.15625Z" fill="black"/>
</svg>
