<svg width="45" height="45" viewBox="0 0 45 45" fill="none" xmlns="http://www.w3.org/2000/svg">
<rect x="0.442848" y="0.903587" width="43.6083" height="43.6083" rx="6.22976" fill="#5D5FEF"/>
<path d="M17.8661 14.6304C16.9845 15.5283 16.9845 16.9813 17.8824 17.8792L19.8415 19.8383C21.6863 21.6831 21.6863 24.687 19.8415 26.5318L16.2498 22.9401C15.3274 22.0177 14.8621 20.8015 14.8621 19.5934C14.8621 18.3853 15.3274 17.169 16.2498 16.2466L17.8416 14.6549C17.8497 14.6467 17.8579 14.6385 17.8661 14.6304Z" fill="#5D5FEF" stroke="white" stroke-width="1.55744" stroke-miterlimit="10"/>
<path d="M19.4332 19.4293L17.8822 17.8783C16.9843 16.9804 16.9762 15.5356 17.8659 14.6295C18.7475 13.7642 20.1515 13.7806 21.0249 14.654C21.4657 15.0948 21.6861 15.6744 21.6861 16.2458C21.6861 16.8172 21.4657 17.3967 21.0249 17.8375L20.6576 18.2048" fill="#5D5FEF"/>
<path d="M19.4332 19.4293L17.8822 17.8783C16.9843 16.9804 16.9762 15.5356 17.8659 14.6295C18.7475 13.7642 20.1515 13.7806 21.0249 14.654C21.4657 15.0948 21.6861 15.6744 21.6861 16.2458C21.6861 16.8172 21.4657 17.3967 21.0249 17.8375L20.6576 18.2048" stroke="white" stroke-width="1.55744" stroke-miterlimit="10"/>
<path d="M27.1306 30.6698C28.0121 29.7719 28.0121 28.3189 27.1142 27.421L25.1551 25.4619C23.3103 23.6171 23.3103 20.6132 25.1551 18.7684L28.7468 22.36C29.6692 23.2824 30.1345 24.4987 30.1345 25.7068C30.1345 26.9149 29.6692 28.1312 28.7468 29.0536L27.155 30.6453C27.1387 30.6616 27.1306 30.6698 27.1306 30.6698Z" fill="#5D5FEF" stroke="white" stroke-width="1.55744" stroke-miterlimit="10"/>
<path d="M25.5548 25.8781L27.1057 27.4291C28.0036 28.327 28.0118 29.7718 27.122 30.6779C26.2404 31.5432 24.8364 31.5268 23.963 30.6534C23.5222 30.2126 23.3018 29.6331 23.3018 29.0617C23.3018 28.4903 23.5222 27.9107 23.963 27.4699L24.3385 27.0944" fill="#5D5FEF"/>
<path d="M25.5548 25.8781L27.1057 27.4291C28.0036 28.327 28.0118 29.7718 27.122 30.6779C26.2404 31.5432 24.8364 31.5268 23.963 30.6534C23.5222 30.2126 23.3018 29.6331 23.3018 29.0617C23.3018 28.4903 23.5222 27.9107 23.963 27.4699L24.3385 27.0944" stroke="white" stroke-width="1.55744" stroke-miterlimit="10"/>
</svg>
