<svg width="98" height="98" viewBox="0 0 98 98" fill="none" xmlns="http://www.w3.org/2000/svg">
<path d="M98 49C98 76.062 76.062 98 49 98C21.938 98 0 76.062 0 49C0 21.938 21.938 0 49 0C76.062 0 98 21.938 98 49ZM16.0842 49C16.0842 67.1789 30.8211 81.9158 49 81.9158C67.1789 81.9158 81.9158 67.1789 81.9158 49C81.9158 30.8211 67.1789 16.0842 49 16.0842C30.8211 16.0842 16.0842 30.8211 16.0842 49Z" fill="#3EA843"/>
<path d="M18.4374 87.3005C14.3366 84.0281 10.7879 80.1185 7.92688 75.7208L21.4091 66.9497C23.3309 69.9039 25.7148 72.5302 28.4695 74.7284L18.4374 87.3005Z" fill="#FFA500"/>
<path d="M51.6667 47.6665H50.3334V46.3332C50.3334 45.9796 50.1929 45.6405 49.9428 45.3904C49.6928 45.1404 49.3536 44.9999 49 44.9999C48.6464 44.9999 48.3073 45.1404 48.0572 45.3904C47.8072 45.6405 47.6667 45.9796 47.6667 46.3332V47.6665H46.3334C45.9797 47.6665 45.6406 47.807 45.3905 48.0571C45.1405 48.3071 45 48.6463 45 48.9999C45 49.3535 45.1405 49.6926 45.3905 49.9427C45.6406 50.1927 45.9797 50.3332 46.3334 50.3332H47.6667V51.6665C47.6667 52.0202 47.8072 52.3593 48.0572 52.6094C48.3073 52.8594 48.6464 52.9999 49 52.9999C49.3536 52.9999 49.6928 52.8594 49.9428 52.6094C50.1929 52.3593 50.3334 52.0202 50.3334 51.6665V50.3332H51.6667C52.0203 50.3332 52.3595 50.1927 52.6095 49.9427C52.8596 49.6926 53 49.3535 53 48.9999C53 48.6463 52.8596 48.3071 52.6095 48.0571C52.3595 47.807 52.0203 47.6665 51.6667 47.6665ZM59.88 39.6665C58.4583 38.2595 56.5805 37.4069 54.5854 37.2627C52.5903 37.1184 50.6094 37.692 49 38.8799C47.3036 37.6181 45.192 37.0459 43.0906 37.2786C40.9892 37.5113 39.0539 38.5316 37.6747 40.134C36.2954 41.7364 35.5745 43.8019 35.6571 45.9146C35.7397 48.0272 36.6198 50.0301 38.12 51.5199L46.12 59.5865C46.87 60.3356 47.8867 60.7564 48.9467 60.7564C50.0067 60.7564 51.0234 60.3356 51.7734 59.5865L59.7734 51.5199C60.5613 50.7501 61.1893 49.8321 61.6213 48.8189C62.0533 47.8056 62.2808 46.7169 62.2907 45.6154C62.3006 44.5139 62.0928 43.4213 61.679 42.4004C61.2653 41.3795 60.654 40.4504 59.88 39.6665ZM58 49.6132L50 57.6132C49.8761 57.7382 49.7286 57.8374 49.5661 57.9051C49.4036 57.9728 49.2294 58.0076 49.0534 58.0076C48.8773 58.0076 48.7031 57.9728 48.5406 57.9051C48.3781 57.8374 48.2306 57.7382 48.1067 57.6132L40.1067 49.6132C39.061 48.5443 38.4755 47.1085 38.4755 45.6132C38.4755 44.1179 39.061 42.6821 40.1067 41.6132C41.1722 40.5612 42.6093 39.9713 44.1067 39.9713C45.6041 39.9713 47.0412 40.5612 48.1067 41.6132C48.2306 41.7382 48.3781 41.8374 48.5406 41.9051C48.7031 41.9728 48.8773 42.0076 49.0534 42.0076C49.2294 42.0076 49.4036 41.9728 49.5661 41.9051C49.7286 41.8374 49.8761 41.7382 50 41.6132C51.0656 40.5612 52.5027 39.9713 54 39.9713C55.4974 39.9713 56.9345 40.5612 58 41.6132C59.0537 42.6833 59.6443 44.1248 59.6443 45.6265C59.6443 47.1283 59.0537 48.5698 58 49.6399V49.6132Z" fill="#26D02F"/>
</svg>
