<svg width="98" height="98" viewBox="0 0 98 98" fill="none" xmlns="http://www.w3.org/2000/svg">
<path d="M98 49C98 76.062 76.062 98 49 98C21.938 98 0 76.062 0 49C0 21.938 21.938 0 49 0C76.062 0 98 21.938 98 49ZM16.0842 49C16.0842 67.1789 30.8211 81.9158 49 81.9158C67.1789 81.9158 81.9158 67.1789 81.9158 49C81.9158 30.8211 67.1789 16.0842 49 16.0842C30.8211 16.0842 16.0842 30.8211 16.0842 49Z" fill="#7DCF81"/>
<path d="M18.4374 87.3005C12.9511 82.9226 8.46946 77.4172 5.29565 71.1569C2.12185 64.8967 0.330019 58.0276 0.0414346 51.0147C-0.24715 44.0017 0.974252 37.0087 3.62297 30.5088C6.27168 24.0089 10.2859 18.1539 15.3939 13.3401C20.5019 8.5263 26.5844 4.86605 33.2298 2.6071C39.8752 0.348147 46.9284 -0.456775 53.9119 0.246811C60.8954 0.950397 67.6462 3.14607 73.7075 6.68521C79.7687 10.2244 84.9989 15.0244 89.044 20.7603L75.8996 30.03C73.1823 26.1768 69.6689 22.9524 65.5973 20.575C61.5256 18.1975 56.9907 16.7226 52.2996 16.25C47.6084 15.7773 42.8704 16.318 38.4064 17.8355C33.9423 19.3529 29.8563 21.8117 26.425 25.0454C22.9937 28.2791 20.2972 32.2122 18.5179 36.5785C16.7386 40.9448 15.9181 45.6424 16.112 50.3534C16.3059 55.0643 17.5095 59.6786 19.6415 63.884C21.7735 68.0893 24.7841 71.7876 28.4695 74.7284L18.4374 87.3005Z" fill="#FF0000"/>
<path d="M48 35.5833C47.5658 35.5823 47.1425 35.7201 46.7922 35.9766C46.4418 36.2331 46.1825 36.5949 46.0522 37.0092C45.922 37.4234 45.9275 37.8685 46.068 38.2794C46.2085 38.6903 46.4767 39.0455 46.8333 39.2933V40.9266C45.7833 41.0783 44.8033 41.4166 43.9167 41.9299L42.6217 40.0749C42.8433 39.4683 42.785 38.7683 42.3883 38.2083C41.98 37.6366 41.35 37.3333 40.7083 37.3333C40.3 37.3333 39.8917 37.4499 39.5417 37.7066C38.62 38.3483 38.3867 39.6199 39.04 40.5416C39.4367 41.1133 40.0667 41.4166 40.7083 41.4166L42.085 43.3766C41.5833 43.8783 41.1867 44.4383 40.8483 45.0566C40.615 44.9633 40.37 44.9166 40.125 44.9166C39.6 44.9166 39.075 45.1149 38.6667 45.4999C37.885 46.3166 37.885 47.5999 38.6667 48.4166C39.005 48.7316 39.4133 48.9066 39.8333 48.9999C39.8333 49.6299 39.915 50.2366 40.0433 50.8199L38.515 51.2283C38.1533 50.9249 37.6867 50.7499 37.2083 50.7499C37.0333 50.7499 36.8467 50.7499 36.6717 50.8199C36.4126 50.8902 36.17 51.0109 35.9576 51.175C35.7453 51.3392 35.5673 51.5436 35.4341 51.7765C35.3008 52.0095 35.2147 52.2665 35.1809 52.5327C35.147 52.799 35.166 53.0693 35.2367 53.3283C35.4817 54.2499 36.3333 54.8333 37.2083 54.8333C37.3833 54.8333 37.5583 54.8333 37.745 54.7633C38.41 54.5766 38.9117 54.0866 39.1217 53.4799L40.8833 53.0016C41.4083 53.9233 42.1083 54.7399 42.925 55.4166L41.6417 57.7499C41 57.8433 40.4167 58.2049 40.0783 58.8233C39.9512 59.0592 39.8717 59.3179 39.8445 59.5845C39.8174 59.8512 39.8429 60.1206 39.9199 60.3773C39.9968 60.6341 40.1235 60.8732 40.2928 61.0809C40.4622 61.2887 40.6707 61.4611 40.9067 61.5883C41.1426 61.7154 41.4013 61.7949 41.6679 61.8221C41.9346 61.8493 42.204 61.8237 42.4607 61.7467C42.7175 61.6698 42.9566 61.5431 43.1644 61.3738C43.3721 61.2044 43.5445 60.9959 43.6717 60.7599C43.9983 60.1533 43.9867 59.4533 43.695 58.8816L44.9433 56.5833C45.8883 56.9566 46.915 57.1666 48 57.1666H48.21C48.0583 57.4699 48 57.8199 48 58.1933C48.0933 59.2666 48.98 60.0833 50.0417 60.0833H50.1933C51.325 59.9899 52.165 59.0099 52.0833 57.8899C52.0367 57.3066 51.745 56.7933 51.325 56.4549C51.8733 56.2099 52.3983 55.8949 52.8883 55.5333L55.6183 58.2633C55.5017 58.9166 55.6883 59.5816 56.1667 60.0833C56.575 60.4683 57.1 60.6666 57.625 60.6666C58.15 60.6666 58.675 60.4683 59.0833 60.0833C59.865 59.2666 59.865 57.9833 59.0833 57.1666C58.675 56.7816 58.15 56.5833 57.625 56.5833C57.5083 56.5833 57.3917 56.5833 57.2633 56.6183L54.5333 53.8883C55.105 53.1299 55.5483 52.2666 55.8283 51.3333H57.1233C57.3711 51.6899 57.7263 51.9581 58.1372 52.0986C58.5481 52.2391 58.9932 52.2446 59.4074 52.1144C59.8217 51.9841 60.1835 51.7248 60.44 51.3744C60.6965 51.0241 60.8343 50.6008 60.8333 50.1666C60.8343 49.7323 60.6965 49.3091 60.44 48.9587C60.1835 48.6083 59.8217 48.3491 59.4074 48.2188C58.9932 48.0885 58.5481 48.0941 58.1372 48.2346C57.7263 48.3751 57.3711 48.6433 57.1233 48.9999H56.1667C56.1667 47.1683 55.5833 45.4999 54.5333 44.1116L56.0967 42.5483C56.225 42.5833 56.3417 42.5833 56.4583 42.5833C56.9833 42.5833 57.5083 42.3849 57.9167 41.9999C58.6983 41.1949 58.6983 39.8999 57.9167 39.0833C57.5083 38.6983 56.9833 38.4999 56.4583 38.4999C55.9333 38.4999 55.4083 38.6983 55 39.0833C54.5217 39.5849 54.335 40.2499 54.4517 40.9033L52.8883 42.4666C51.815 41.6616 50.555 41.1249 49.1667 40.9266V39.2933C49.5233 39.0455 49.7915 38.6903 49.932 38.2794C50.0725 37.8685 50.0781 37.4234 49.9478 37.0092C49.8175 36.5949 49.5583 36.2331 49.2079 35.9766C48.8575 35.7201 48.4343 35.5823 48 35.5833ZM48 54.8333C44.78 54.8333 42.1667 52.2199 42.1667 48.9999C42.1667 45.7799 44.78 43.1666 48 43.1666C51.22 43.1666 53.8333 45.7799 53.8333 48.9999C53.8333 52.2199 51.22 54.8333 48 54.8333ZM46.25 45.4999C45.2817 45.4999 44.5 46.2816 44.5 47.2499C44.5 48.2183 45.2817 48.9999 46.25 48.9999C47.2183 48.9999 48 48.2183 48 47.2499C48 46.2816 47.2183 45.4999 46.25 45.4999ZM50.3333 50.1666C49.6917 50.1666 49.1667 50.6916 49.1667 51.3333C49.1667 51.9749 49.6917 52.4999 50.3333 52.4999C50.975 52.4999 51.5 51.9749 51.5 51.3333C51.5 50.6916 50.975 50.1666 50.3333 50.1666Z" fill="#FF5555"/>
</svg>
