<svg width="98" height="98" viewBox="0 0 98 98" fill="none" xmlns="http://www.w3.org/2000/svg">
<path d="M98 49C98 76.062 76.062 98 49 98C21.938 98 0 76.062 0 49C0 21.938 21.938 0 49 0C76.062 0 98 21.938 98 49ZM16.0842 49C16.0842 67.1789 30.8211 81.9158 49 81.9158C67.1789 81.9158 81.9158 67.1789 81.9158 49C81.9158 30.8211 67.1789 16.0842 49 16.0842C30.8211 16.0842 16.0842 30.8211 16.0842 49Z" fill="#7DCF81"/>
<path d="M18.4374 87.3005C12.4273 82.5046 7.6302 76.3617 4.434 69.3684C1.23781 62.3751 -0.267769 54.7279 0.0390182 47.0449C0.345805 39.362 2.45635 31.8591 6.19997 25.143C9.9436 18.4268 15.2152 12.6859 21.5886 8.38457L30.5863 21.7165C26.305 24.606 22.7638 28.4624 20.249 32.974C17.7342 37.4856 16.3165 42.5257 16.1104 47.6867C15.9043 52.8477 16.9157 57.9848 19.0627 62.6825C21.2098 67.3802 24.4322 71.5068 28.4695 74.7284L18.4374 87.3005Z" fill="#FFA500"/>
<path d="M61.228 53.5307L53.3453 40.3921C52.3107 38.6681 50.728 37.6814 49 37.6814C47.272 37.6814 45.6893 38.6681 44.6547 40.3894L36.772 53.5307C35.724 55.2761 35.6093 57.1374 36.4587 58.6374C37.3067 60.1387 38.9627 61.0001 41 61.0001H57C59.0373 61.0001 60.6933 60.1387 61.5413 58.6387C62.3893 57.1387 62.276 55.2774 61.228 53.5307ZM49 56.3987C47.8613 56.3987 46.9333 55.4721 46.9333 54.3334C46.9333 53.1934 47.86 52.2654 49 52.2654C50.14 52.2654 51.0667 53.1934 51.0667 54.3334C51.0667 55.4721 50.1387 56.3987 49 56.3987ZM51.1773 46.5001C51.1627 46.5414 49.3093 51.1241 49.3093 51.1241C49.2587 51.2494 49.136 51.3321 49.0013 51.3321C48.8667 51.3321 48.744 51.2494 48.6933 51.1241L46.8387 46.5401C46.7274 46.2622 46.669 45.966 46.6667 45.6667C46.6667 44.3801 47.7133 43.3334 49 43.3334C49.3779 43.3344 49.7499 43.427 50.0841 43.6033C50.4183 43.7797 50.7048 44.0345 50.9189 44.3459C51.133 44.6573 51.2684 45.0159 51.3134 45.3911C51.3584 45.7663 51.3117 46.1469 51.1773 46.5001Z" fill="#FEC04E"/>
</svg>
