<svg width="22" height="22" viewBox="0 0 22 22" fill="none" xmlns="http://www.w3.org/2000/svg">
<path d="M18.3334 13.3566C18.3334 17.1901 14.9747 20.1665 11 20.1665C7.02535 20.1665 3.66669 17.1901 3.66669 13.3566C3.66669 10.9999 4.86294 8.66421 6.15635 6.80429C7.46719 4.92054 8.97602 3.38879 9.78819 2.61696M18.3334 13.3566L9.78819 2.61696M18.3334 13.3566C18.3334 10.9999 17.1371 8.66421 15.8437 6.80429C14.5329 4.92054 13.024 3.38879 12.2119 2.61696C11.8855 2.30497 11.4515 2.13086 11 2.13086C10.5486 2.13086 10.1145 2.30497 9.78819 2.61696" stroke="#2E7D32" stroke-width="1.83333"/>
<path d="M11 16.4997C10.0275 16.4997 9.09489 16.1134 8.40725 15.4257C7.71962 14.7381 7.33331 13.8055 7.33331 12.833" stroke="#2E7D32" stroke-width="1.83333" stroke-linecap="round"/>
</svg>
