<svg width="24" height="24" viewBox="0 0 24 24" fill="none" xmlns="http://www.w3.org/2000/svg">
<path d="M12.75 22.5C11.5939 22.5005 10.4699 22.1194 9.5525 21.4158C8.63513 20.7121 7.97567 19.7254 7.67647 18.6086C7.37728 17.4919 7.45509 16.3076 7.89782 15.2396C8.34055 14.1716 9.12345 13.2795 10.125 12.702L10.5 12.486V3.75C10.4979 3.2193 10.684 2.70504 11.0253 2.29856C11.3665 1.89208 11.8407 1.61969 12.3637 1.52976C12.8868 1.43983 13.4247 1.53819 13.8821 1.80736C14.3395 2.07653 14.6867 2.49909 14.862 3H12.75V4.5H15V6H12.75V7.5H15V9H12.75V10.5H15V12.486L15.375 12.702C16.3765 13.2795 17.1594 14.1716 17.6022 15.2396C18.0449 16.3076 18.1227 17.4919 17.8235 18.6086C17.5243 19.7254 16.8649 20.7121 15.9475 21.4158C15.0301 22.1194 13.9061 22.5005 12.75 22.5ZM16.5 11.637V3.75C16.5 2.75544 16.1049 1.80161 15.4017 1.09835C14.6984 0.395088 13.7446 0 12.75 0C11.7554 0 10.8016 0.395088 10.0983 1.09835C9.39509 1.80161 9 2.75544 9 3.75V11.637C7.79592 12.4415 6.88248 13.6119 6.39461 14.9754C5.90673 16.3389 5.87028 17.8231 6.29064 19.2089C6.71099 20.5946 7.56587 21.8085 8.72901 22.6711C9.89215 23.5338 11.3019 23.9995 12.75 23.9995C14.1981 23.9995 15.6079 23.5338 16.771 22.6711C17.9341 21.8085 18.789 20.5946 19.2094 19.2089C19.6297 17.8231 19.5933 16.3389 19.1054 14.9754C18.6175 13.6119 17.7041 12.4415 16.5 11.637Z" fill="#2E7D32"/>
<path d="M12.75 13.5C13.7446 13.5 14.6984 13.8951 15.4017 14.5983C16.1049 15.3016 16.5 16.2554 16.5 17.25C16.5 18.2446 16.1049 19.1984 15.4017 19.9017C14.6984 20.6049 13.7446 21 12.75 21C11.7554 21 10.8016 20.6049 10.0983 19.9017C9.39509 19.1984 9 18.2446 9 17.25C9 16.2554 9.39509 15.3016 10.0983 14.5983C10.8016 13.8951 11.7554 13.5 12.75 13.5Z" fill="#2E7D32"/>
</svg>
