<svg width="24" height="24" viewBox="0 0 24 24" fill="none" xmlns="http://www.w3.org/2000/svg">
<path d="M19.821 19.918L15.944 18.787L13.02 20.499H10.98L8.054 18.787L4.179 19.917L3 16.02L4.179 11.693L3 8.034L4.179 3.5L10.235 7.044H13.765L19.821 3.5L21 8.034L19.821 11.692L21 16.02L19.821 19.918Z" fill="#FF5C16"/>
<path d="M4.17999 3.5L10.235 7.047L9.99499 9.481L4.17999 3.5ZM8.05499 16.02L10.72 18.01L8.05499 18.787V16.02ZM10.507 12.734L9.99499 9.483L6.71699 11.693H6.71499V11.694L6.72499 13.969L8.05499 12.734H10.507ZM19.82 3.5L13.764 7.047L14.004 9.481L19.82 3.5ZM15.945 16.02L13.28 18.01L15.945 18.787V16.02ZM17.284 11.694L14.005 9.484L13.493 12.734H15.944L17.274 13.97L17.284 11.694Z" fill="#FF5C16"/>
<path d="M8.054 18.7869L4.179 19.9169L3 16.0219H8.054V18.7869ZM10.506 12.7329L11.246 17.4329L10.22 14.8189L6.723 13.9689L8.053 12.7329H10.506ZM15.946 18.7869L19.821 19.9169L21 16.0219H15.945L15.946 18.7869ZM13.494 12.7329L12.754 17.4329L13.78 14.8189L17.277 13.9689L15.946 12.7329H13.494Z" fill="#E34807"/>
<path d="M3 16.0199L4.179 11.6919H6.714L6.724 13.9679L10.22 14.8179L11.246 17.4309L10.719 18.0069L8.054 16.0179H3V16.0199ZM21 16.0199L19.821 11.6919H17.286L17.276 13.9679L13.78 14.8179L12.754 17.4309L13.281 18.0069L15.946 16.0179H21V16.0199ZM13.765 7.04395H10.235L9.995 9.47895L11.246 17.4289H12.754L14.006 9.47895L13.765 7.04395Z" fill="#FF8D5D"/>
<path d="M4.179 3.5L3 8.034L4.179 11.692H6.714L9.994 9.481L4.179 3.5ZM9.773 13.677H8.625L7.999 14.277L10.221 14.817L9.773 13.677ZM19.821 3.5L21 8.034L19.821 11.692H17.286L14.006 9.481L19.821 3.5ZM14.228 13.677H15.378L16.004 14.277L13.78 14.818L14.228 13.677ZM13.019 18.948L13.281 18.008L12.754 17.433H11.245L10.718 18.008L10.98 18.948" fill="#661800"/>
<path d="M13.02 18.948V20.5H10.98V18.948H13.02Z" fill="#C0C4CD"/>
<path d="M8.05499 18.7851L10.982 20.4991V18.9471L10.72 18.0071L8.05499 18.7851ZM15.945 18.7851L13.02 20.5001V18.9481L13.282 18.0081L15.945 18.7851Z" fill="#E7EBF6"/>
</svg>
