<svg width="24" height="24" viewBox="0 0 24 24" fill="none" xmlns="http://www.w3.org/2000/svg">
<path d="M21.171 15.3982L15.259 5.54423C14.483 4.25123 13.296 3.51123 12 3.51123C10.704 3.51123 9.51699 4.25123 8.74099 5.54223L2.82899 15.3982C2.04299 16.7072 1.95699 18.1032 2.59399 19.2282C3.22999 20.3542 4.47199 21.0002 5.99999 21.0002H18C19.528 21.0002 20.77 20.3542 21.406 19.2292C22.042 18.1042 21.957 16.7082 21.171 15.3982ZM12 17.5492C11.146 17.5492 10.45 16.8542 10.45 16.0002C10.45 15.1452 11.145 14.4492 12 14.4492C12.855 14.4492 13.55 15.1452 13.55 16.0002C13.55 16.8542 12.854 17.5492 12 17.5492ZM13.633 10.1252C13.622 10.1562 12.232 13.5932 12.232 13.5932C12.194 13.6872 12.102 13.7492 12.001 13.7492C11.9 13.7492 11.808 13.6872 11.77 13.5932L10.379 10.1552C10.2955 9.94685 10.2518 9.7247 10.25 9.50023C10.25 8.53523 11.035 7.75023 12 7.75023C12.2834 7.75096 12.5624 7.82043 12.8131 7.95269C13.0638 8.08495 13.2786 8.27605 13.4392 8.50959C13.5997 8.74313 13.7013 9.01214 13.735 9.29354C13.7688 9.57494 13.7338 9.86034 13.633 10.1252Z" fill="#FFA500"/>
</svg>
