<svg width="22" height="22" viewBox="0 0 22 22" fill="none" xmlns="http://www.w3.org/2000/svg">
<path d="M15.8263 18.0821H6.24773C5.81975 18.0821 5.34082 17.7458 5.19817 17.3382L0.979515 5.53825C0.378307 3.84672 1.08142 3.32703 2.52839 4.36641L6.50248 7.20941C7.16483 7.66796 7.91889 7.43359 8.20421 6.68972L9.99764 1.91062C10.5683 0.382124 11.516 0.382124 12.0866 1.91062L13.88 6.68972C14.1653 7.43359 14.9194 7.66796 15.5716 7.20941L19.3011 4.54982C20.8907 3.40855 21.655 3.98938 21.0028 5.83376L16.8861 17.3586C16.7332 17.7458 16.2543 18.0821 15.8263 18.0821Z" stroke="#595959" stroke-width="1.5" stroke-linecap="round" stroke-linejoin="round"/>
<path d="M5.43258 21.1594H16.6416" stroke="#595959" stroke-width="1.5" stroke-linecap="round" stroke-linejoin="round"/>
<path d="M8.48957 13.0074H13.5846" stroke="#595959" stroke-width="1.5" stroke-linecap="round" stroke-linejoin="round"/>
</svg>
